<svg xmlns="http://www.w3.org/2000/svg" data-name="Layer 2" viewBox="0 0 100 125" x="0px" y="0px"><title>Artboard 45</title><path d="M72.4,68.2a1.5,1.5,0,0,0-1.5,1.5v8.4H29.1v-56H70.9v8.2a1.5,1.5,0,1,0,3,0V13.2a4.71,4.71,0,0,0-4.7-4.7H30.8a4.71,4.71,0,0,0-4.7,4.7V86.8a4.71,4.71,0,0,0,4.7,4.7H69.2a4.71,4.71,0,0,0,4.7-4.7V69.7A1.5,1.5,0,0,0,72.4,68.2ZM30.8,11.5H69.2a1.7,1.7,0,0,1,1.7,1.7v5.9H29.1V13.2A1.7,1.7,0,0,1,30.8,11.5Zm38.4,77H30.8a1.7,1.7,0,0,1-1.7-1.7V81.1H70.9v5.7A1.7,1.7,0,0,1,69.2,88.5ZM48,16.3v-2a1,1,0,0,1,1-1h2a1,1,0,0,1,1,1v2a1,1,0,0,1-1,1H49A1,1,0,0,1,48,16.3Zm6.7,68.5a1.5,1.5,0,0,1-1.5,1.5H46.8a1.5,1.5,0,0,1,0-3h6.4A1.5,1.5,0,0,1,54.7,84.8Zm17.7-50A15.2,15.2,0,1,0,87.6,50,15.22,15.22,0,0,0,72.4,34.8Zm0,27.41A12.2,12.2,0,1,1,84.6,50,12.22,12.22,0,0,1,72.4,62.2ZM80.65,50a1.5,1.5,0,0,1-1.5,1.5H73.9v5.25a1.5,1.5,0,0,1-3,0V51.5H65.65a1.5,1.5,0,0,1,0-3H70.9V43.25a1.5,1.5,0,0,1,3,0V48.5h5.25A1.5,1.5,0,0,1,80.65,50Z"/></svg>