<svg xmlns="http://www.w3.org/2000/svg" data-name="Layer 2" viewBox="0 0 100 125" x="0px" y="0px"><title>Artboard 94</title><path d="M85.43,60.39a39.46,39.46,0,1,0-25,25,17.75,17.75,0,1,0,25-25ZM48,84.43A36.45,36.45,0,1,1,82.88,58.52a17.47,17.47,0,0,0-12.39-2.25V56A7.63,7.63,0,0,0,65,48.65l-6.15-1.76A21,21,0,0,0,61.33,36.1a29.81,29.81,0,0,0-.18-3.2s0,0,0-.07,0-.12,0-.19c0-.33-.09-.64-.14-1s-.07-.45-.11-.67-.12-.61-.19-.91-.11-.44-.16-.66-.15-.54-.23-.8-.16-.48-.24-.72-.16-.43-.24-.64-.24-.56-.37-.83-.13-.29-.21-.43q-.3-.58-.63-1.1l0-.06a11.75,11.75,0,0,0-2.75-3l-.07-.05a11.16,11.16,0,0,0-1-.67l-.18-.1q-.48-.27-1-.5l-.26-.11q-.48-.2-1-.36L52,19.95c-.32-.1-.66-.18-1-.25l-.39-.08c-.35-.06-.7-.11-1.06-.15l-.39,0c-.49,0-1-.07-1.52-.07s-.94,0-1.4.06l-.52.06-.76.11-.67.12-.38.1a11.85,11.85,0,0,0-8.29,7.13l0,0c-.14.33-.28.67-.4,1l-.07.2a24.33,24.33,0,0,0-1.19,7.92,21,21,0,0,0,2.51,10.79l-6.14,1.76A7.63,7.63,0,0,0,24.77,56v13.7a1.5,1.5,0,0,0,1.5,1.5H56.16a17.25,17.25,0,0,0,2.36,11.71A36.41,36.41,0,0,1,48,84.43Zm8.9-16.27h-23v-4.6a1.5,1.5,0,1,0-3,0v4.6h-3.1V56a4.62,4.62,0,0,1,3.34-4.42l7.3-2.09a12.74,12.74,0,0,0,9.22,3.41,12.74,12.74,0,0,0,9.22-3.41l7.3,2.09A4.62,4.62,0,0,1,67.48,56v1.15A17.83,17.83,0,0,0,56.86,68.16Zm-14-44.87A9.34,9.34,0,0,1,44,22.88l.38-.12a11,11,0,0,1,1.16-.24l.4-.07a13.74,13.74,0,0,1,1.69-.11,14.06,14.06,0,0,1,1.66.1c.19,0,.36.06.54.09s.65.11,1,.19.41.12.61.19.5.17.74.27l.59.28c.22.11.43.23.64.36s.35.22.52.34a8.32,8.32,0,0,1,.65.54c.12.11.24.2.36.31a9,9,0,0,1,.84,1c.08.11.15.22.22.33a10.43,10.43,0,0,1,.58,1l.15.28a12.8,12.8,0,0,1,.61,1.44l-3.92-3.28a1.5,1.5,0,0,0-2.19.29A11.16,11.16,0,0,1,44,30.66l-5,.92-1.2-2.16a9.63,9.63,0,0,1,4.78-6ZM37,34a1.5,1.5,0,0,0,1.27.72l.27,0,6-1.12a14.13,14.13,0,0,0,8-4.55l5.61,4.69c.07.79.09,1.58.09,2.34,0,6.27-1.86,13.75-10.7,13.75a9.57,9.57,0,0,1-7.56-3l0-.06c-2.42-2.76-3.1-6.92-3.1-10.67C36.92,35.42,37,34.73,37,34ZM73.73,88.5A14.77,14.77,0,1,1,88.5,73.73,14.79,14.79,0,0,1,73.73,88.5Zm9.64-14.77a1.5,1.5,0,0,1-1.5,1.5H75.23v6.64a1.5,1.5,0,0,1-3,0V75.23H65.59a1.5,1.5,0,1,1,0-3h6.64V65.59a1.5,1.5,0,0,1,3,0v6.64h6.64A1.5,1.5,0,0,1,83.36,73.73Z"/></svg>