<svg xmlns="http://www.w3.org/2000/svg" data-name="Layer 2" viewBox="0 0 100 125" x="0px" y="0px"><title>Artboard 42</title><path d="M17.79,71.23a1.48,1.48,0,0,0,.06.4s0,0,0,0l0,0a1.49,1.49,0,0,0,.19.37l0,0a1.5,1.5,0,0,0,.27.27l.05,0a1.49,1.49,0,0,0,.36.19l.09,0a1.49,1.49,0,0,0,.41.07H80.72a1.49,1.49,0,0,0,.41-.07l.09,0a1.49,1.49,0,0,0,.36-.19l.05,0a1.5,1.5,0,0,0,.27-.27l0,0a1.49,1.49,0,0,0,.19-.37l0,0s0,0,0,0a1.48,1.48,0,0,0,.06-.4V28.77s0,0,0,0,0,0,0-.07a1.48,1.48,0,0,0-.07-.36s0,0,0,0v0a1.49,1.49,0,0,0-.19-.35l-.05-.06a1.5,1.5,0,0,0-.27-.26l0,0a1.49,1.49,0,0,0-.36-.18l-.09,0a1.48,1.48,0,0,0-.41-.06H19.29a1.48,1.48,0,0,0-.41.06l-.09,0a1.49,1.49,0,0,0-.36.18l0,0a1.5,1.5,0,0,0-.27.26l-.05.06a1.49,1.49,0,0,0-.19.35v0s0,0,0,0a1.48,1.48,0,0,0-.07.36s0,0,0,.07,0,0,0,0Zm61.42-2.86L55.29,51.83,79.21,32ZM52.9,53.83l23,15.9H24.1l23-15.9L49,55.44a1.5,1.5,0,0,0,1.92,0ZM20.79,68.37V32L44.71,51.83Zm55.77-38.1L50,52.33,23.44,30.27Z"/></svg>